<svg width="80" height="80" viewBox="0 0 80 80" fill="none" xmlns="http://www.w3.org/2000/svg">
<path d="M39.7194 13.9131C24.9886 13.9131 13.0435 25.8561 13.0435 40.589C13.0435 52.3753 20.6869 62.3745 31.2861 65.9019C32.6192 66.1487 33.1088 65.3232 33.1088 64.6185C33.1088 63.9825 33.0839 61.881 33.0726 59.652C25.6511 61.2657 24.0852 56.5046 24.0852 56.5046C22.8717 53.4212 21.1233 52.6015 21.1233 52.6015C18.7031 50.9457 21.3058 50.9796 21.3058 50.9796C23.9845 51.1679 25.3951 53.7287 25.3951 53.7287C27.7743 57.8069 31.6355 56.6278 33.1578 55.9464C33.3971 54.222 34.0886 53.0454 34.8514 52.3793C28.9264 51.7046 22.6977 49.4172 22.6977 39.1958C22.6977 36.2836 23.7398 33.9037 25.4463 32.0357C25.1693 31.3637 24.2563 28.6506 25.7047 24.9761C25.7047 24.9761 27.9448 24.2592 33.0425 27.7106C35.1702 27.1193 37.4523 26.8231 39.7194 26.813C41.9864 26.8231 44.2702 27.1193 46.4021 27.7106C51.4938 24.2592 53.7307 24.9761 53.7307 24.9761C55.1826 28.6506 54.2692 31.3637 53.9922 32.0357C55.7025 33.9037 56.7375 36.2834 56.7375 39.1958C56.7375 49.4415 50.4971 51.6977 44.557 52.3579C45.5138 53.1858 46.3663 54.8093 46.3663 57.2979C46.3663 60.8671 46.3354 63.7398 46.3354 64.6185C46.3354 65.3284 46.8155 66.1602 48.1679 65.8983C58.7612 62.367 66.3951 52.3713 66.3951 40.589C66.3951 25.8561 54.4516 13.9131 39.7194 13.9131Z" fill="#161614"/>
</svg>
